<svg width="22" height="22" viewBox="0 0 22 22" fill="none" xmlns="http://www.w3.org/2000/svg">
    <path d="M18.5309 22H3.46906C1.55888 22 0 20.4411 0 18.5309V3.46906C0 1.55888 1.55888 0 3.46906 0H18.5309C20.4411 0 22 1.55888 22 3.46906V18.5309C22 20.4411 20.4411 22 18.5309 22Z" fill="#4267B2"/>
    <path d="M13.4591 22V13.1298H16.4671L16.9062 9.66069H13.4591V7.44313C13.4591 6.43315 13.7445 5.75251 15.1717 5.75251H16.994V2.6567C16.6866 2.61279 15.5888 2.52496 14.3373 2.52496C11.7026 2.52496 9.88025 4.12776 9.88025 7.09183V9.66069H6.89423V13.1298H9.88025V22H13.4591Z" fill="white"/>
</svg> 