<svg width="121" height="97" viewBox="0 0 121 97" fill="none" xmlns="http://www.w3.org/2000/svg">
    <path d="M104.993 76.5732C102.993 72.8732 104.093 68.5732 107.293 65.9732C115.593 59.5732 120.793 49.8732 120.793 37.2732C120.793 14.9732 104.093 0.0732194 82.4933 0.0732194H76.9933C73.3933 -0.426781 69.7933 1.67322 68.3933 5.17322L42.0933 66.4732L15.9933 5.07322C14.1933 0.773219 9.29325 -1.12678 4.99325 0.773219C0.693254 2.57322 -1.10675 7.57322 0.693255 11.9732L33.7933 89.6732C34.2933 92.4732 36.0933 94.7732 38.7933 95.8732C39.8933 96.3732 41.0933 96.5732 42.1933 96.5732C43.2933 96.5732 44.4933 96.3732 45.5933 95.8732C48.2933 94.7732 49.8933 92.4732 50.5933 89.6732L81.9933 16.3732C94.7933 16.3732 103.593 24.3732 103.593 37.4732C103.593 50.3732 94.7933 57.9732 81.7933 57.9732H76.1933C71.8932 57.9732 68.2933 61.6732 68.2933 65.9732C68.2933 70.2732 71.8932 73.9732 76.1933 73.9732H80.4933C83.3933 73.9732 86.0933 75.5732 87.4933 78.0732L94.7933 91.9732C96.1933 94.4732 98.8933 96.0732 101.793 96.0732H102.493C108.593 96.0732 112.393 89.3732 109.493 83.8732L104.993 76.5732Z" fill="#EB5054"/>
</svg>