<svg width="22" height="22" viewBox="0 0 22 22" fill="none" xmlns="http://www.w3.org/2000/svg">
    <path d="M18.5309 22H3.46906C1.55888 22 0 20.4411 0 18.5309V3.46906C0 1.55888 1.55888 0 3.46906 0H18.5309C20.4411 0 22 1.55888 22 3.46906V18.5309C22 20.4411 20.4411 22 18.5309 22Z" fill="#EB5054"/>
    <path d="M15.5668 9.35327H12.6467V6.43311C12.6467 5.53291 11.9002 4.78641 11 4.78641C10.0998 4.78641 9.35327 5.53291 9.35327 6.43311V9.35327H6.43311C5.53291 9.35327 4.78641 10.0998 4.78641 11C4.78641 11.9002 5.53291 12.6467 6.43311 12.6467H9.35327V15.5668C9.35327 16.467 10.0998 17.2136 11 17.2136C11.9002 17.2136 12.6467 16.467 12.6467 15.5668V12.6467H15.5668C16.467 12.6467 17.2136 11.9002 17.2136 11C17.2136 10.0998 16.467 9.35327 15.5668 9.35327Z" fill="white"/>
</svg>