<svg width="36" height="36" viewBox="0 0 36 36" fill="none" xmlns="http://www.w3.org/2000/svg">
<path opacity="0.3" d="M17.65 35.3C7.92 35.3 0 27.38 0 17.65C0 7.92 7.92 0 17.65 0C27.38 0 35.3 7.92 35.3 17.65C35.3 27.38 27.38 35.3 17.65 35.3ZM17.65 3C9.57 3 3 9.57 3 17.65C3 25.73 9.57 32.3 17.65 32.3C25.73 32.3 32.3 25.73 32.3 17.65C32.3 9.57 25.73 3 17.65 3Z" fill="white"/>
<path d="M15.46 14.3C14.17 15.56 13.18 17.23 13.01 18.66C13.07 18.66 13.47 18.55 13.69 18.55C15.17 18.55 16.31 19.75 16.31 21.34C16.31 22.88 15.06 24.19 13.46 24.19C11.69 24.19 10.16 22.71 10.16 20.09C10.16 17.05 11.7 14.23 13.8 12.4C14.24 12.02 14.9 12.01 15.36 12.37L15.39 12.39C15.99 12.87 16.01 13.76 15.46 14.3ZM24.26 14.32C22.97 15.58 21.97 17.24 21.84 18.66C21.9 18.66 22.24 18.55 22.52 18.55C24 18.55 25.14 19.75 25.14 21.34C25.14 22.88 23.89 24.19 22.29 24.19C20.47 24.19 18.93 22.71 18.93 20.09C18.93 17.07 20.48 14.28 22.53 12.45C22.99 12.04 23.68 12.01 24.17 12.39C24.79 12.87 24.82 13.78 24.26 14.32Z" fill="#EB5054"/>
</svg> 