<svg width="35" height="35" viewBox="0 0 35 35" fill="none" xmlns="http://www.w3.org/2000/svg">
    <path d="M10 0H25C30.5 0 35 4.5 35 10V25C35 30.5 30.5 35 25 35H10C4.5 35 0 30.5 0 25V10C0 4.5 4.5 0 10 0Z" fill="#E94F54"/>
    <path d="M8 12.5H13.8V13.1C13.8 13.7 14.2 14.1 14.8 14.1H18C18.6 14.1 19 13.7 19 13.1V12.5H28C28.6 12.5 29 12.1 29 11.5C29 10.9 28.6 10.5 28 10.5H19V10C19 9.4 18.6 9 18 9H14.8C14.2 9 13.8 9.4 13.8 10V10.5H8C7.4 10.5 7 10.9 7 11.5C7 12.1 7.4 12.5 8 12.5ZM15.8 11H17V12.1H15.8V11Z" fill="white"/>
    <path d="M28 22.5H19V21.9C19 21.3 18.6 20.9 18 20.9H14.8C14.2 20.9 13.8 21.3 13.8 21.9V22.5H8C7.4 22.5 7 22.9 7 23.5C7 24.1 7.4 24.5 8 24.5H13.8V25C13.8 25.6 14.2 26 14.8 26H18C18.6 26 19 25.6 19 25V24.5H28C28.6 24.5 29 24.1 29 23.5C29 22.9 28.6 22.5 28 22.5ZM17 24H15.8V22.9H17V24Z" fill="white"/>
    <path d="M28 16.5H25.3V15.9C25.3 15.3 24.9 14.9 24.3 14.9H21.1C20.5 14.9 20.1 15.3 20.1 15.9V16.5H8C7.4 16.5 7 16.9 7 17.5C7 18.1 7.4 18.5 8 18.5H20.1V19C20.1 19.6 20.5 20 21.1 20H24.3C24.9 20 25.3 19.6 25.3 19V18.5H28C28.6 18.5 29 18.1 29 17.5C29 16.9 28.6 16.5 28 16.5ZM23.3 18H22.1V17.5V16.9H23.3V18Z" fill="white"/>
</svg>