<svg width="35" height="35" viewBox="0 0 35 35" fill="none" xmlns="http://www.w3.org/2000/svg">
    <path d="M10 0H25C30.5 0 35 4.5 35 10V25C35 30.5 30.5 35 25 35H10C4.5 35 0 30.5 0 25V10C0 4.5 4.5 0 10 0Z" fill="#E94F54"/>
    <path d="M21.9 20.2V14.8C23.1 14.4 23.9 13.3 23.9 12C23.9 10.3 22.5 9 20.9 9C19.3 9 17.9 10.4 17.9 12V12.1L13 15.2C12.4 14.8 11.8 14.5 11 14.5C9.3 14.5 8 15.9 8 17.5C8 19.1 9.4 20.5 11 20.5C11.7 20.5 12.4 20.2 12.9 19.8L17.8 22.9V23C17.8 24.7 19.2 26 20.8 26C22.4 26 23.8 24.6 23.8 23C23.9 21.7 23.1 20.6 21.9 20.2ZM20.9 11C21.5 11 21.9 11.5 21.9 12C21.9 12.5 21.4 13 20.9 13C20.3 13 19.9 12.5 19.9 12C19.9 11.5 20.3 11 20.9 11ZM11 18.5C10.4 18.5 10 18 10 17.5C10 17 10.5 16.5 11 16.5C11.6 16.5 12 17 12 17.5C12 18 11.6 18.5 11 18.5ZM14 18.1C14 17.9 14 17.7 14 17.5C14 17.3 14 17.1 14 16.9L18.7 13.9C19 14.3 19.5 14.6 20 14.7V20C19.5 20.2 19.1 20.5 18.7 20.8L14 18.1ZM20.9 24C20.3 24 19.9 23.5 19.9 23C19.9 22.5 20.4 22 20.9 22C21.5 22 21.9 22.5 21.9 23C21.9 23.5 21.5 24 20.9 24Z" fill="white"/>
</svg>